<?xml version="1.0" encoding="utf-8"?>
<!-- Generator: Adobe Illustrator 21.0.2, SVG Export Plug-In . SVG Version: 6.00 Build 0)  -->
<svg version="1.1" id="Layer_1" xmlns="http://www.w3.org/2000/svg" xmlns:xlink="http://www.w3.org/1999/xlink" x="0px" y="0px"
	 viewBox="0 0 252 144" style="enable-background:new 0 0 252 144;" xml:space="preserve">
<style type="text/css">
	.st0{fill:#212222;}
	.st1{fill:#4D4C4C;}
	.st2{opacity:0.4;fill:url(#SVGID_1_);enable-background:new    ;}
	.st3{opacity:0.4;fill:url(#SVGID_2_);enable-background:new    ;}
	.st4{opacity:0.4;fill:url(#SVGID_3_);enable-background:new    ;}
	.st5{opacity:0.4;fill:url(#SVGID_4_);enable-background:new    ;}
</style>
<g>
	<g>
		<path class="st0" d="M65.8,68.7c3.2,1.8,5.6,4.2,7.4,7.4c1.8,3.2,2.6,6.8,2.6,10.8s-0.9,7.6-2.7,10.8c-1.8,3.2-4.3,5.6-7.5,7.4
			s-6.9,2.6-11,2.6H38.1V66.1h16.8C59,66.1,62.6,67,65.8,68.7z M61.1,98.2c1.8-1.1,3.1-2.6,4.1-4.6c1-1.9,1.5-4.2,1.5-6.7
			s-0.5-4.7-1.6-6.7c-1-2-2.5-3.5-4.3-4.6S57,74,54.7,74H47v25.8h8.1C57.4,99.8,59.4,99.3,61.1,98.2z"/>
		<path class="st0" d="M99.2,107.8v-3.7c-1,1.3-2.3,2.4-4,3.1c-1.6,0.7-3.5,1.1-5.6,1.1c-3.2,0-5.8-0.9-7.7-2.8
			c-1.9-1.8-2.8-4.3-2.8-7.2c0-3,1-5.4,3-7.1s4.9-2.5,8.6-2.6h8.4V88c0-1.7-0.5-3-1.6-4c-1.1-0.9-2.7-1.4-4.7-1.4
			c-2.8,0-5.9,0.9-9.1,2.8L81,79.1c2.4-1.3,4.7-2.2,6.8-2.8c2.1-0.6,4.4-0.9,7-0.9c4.1,0,7.2,1,9.5,3c2.2,2,3.4,4.8,3.4,8.5
			l0.1,20.9H99.2z M96.8,100.3c1.3-0.9,2.1-2.1,2.4-3.5v-2.9h-6.9c-1.7,0-3,0.3-3.8,0.9s-1.2,1.5-1.2,2.8c0,1.2,0.4,2.2,1.3,2.9
			c0.9,0.7,2,1.1,3.5,1.1C93.9,101.6,95.5,101.2,96.8,100.3z"/>
		<path class="st0" d="M123.1,62.9c0.9,1,1.3,2.2,1.3,3.7s-0.4,2.7-1.3,3.7s-2,1.4-3.4,1.4s-2.5-0.5-3.4-1.5S115,68,115,66.5
			s0.4-2.7,1.3-3.7s2-1.4,3.4-1.4C121,61.5,122.2,62,123.1,62.9z M115.3,75.7h8.7v32h-8.7V75.7z"/>
		<path class="st0" d="M132.7,63.6h8.7v44.2h-8.7V63.6z"/>
		<path class="st0" d="M153.8,119.7c-1.6,0-3.1-0.2-4.4-0.7c-1.3-0.5-2.6-1.3-3.9-2.4l3.7-6.6c1.3,1.2,2.6,1.7,4,1.7
			c1.9,0,3.2-1,4-2.9l0.9-1.8l-12.6-31.4h9l8,22l7.2-22h8.7L165,111.3C162.8,116.9,159.1,119.7,153.8,119.7z"/>
		<path class="st0" d="M182.3,66.1h28.5l-0.1,7.8h-19.5v10.2h17.9V92h-17.9v15.8h-9V66.1H182.3z"/>
		<path class="st0" d="M223.6,62.9c0.9,1,1.3,2.2,1.3,3.7s-0.4,2.7-1.3,3.7c-0.9,1-2,1.4-3.4,1.4s-2.5-0.5-3.4-1.5s-1.3-2.2-1.3-3.7
			s0.4-2.7,1.3-3.7c0.9-1,2-1.4,3.4-1.4C221.6,61.5,222.7,62,223.6,62.9z M215.8,75.7h8.7v32h-8.7V75.7z"/>
		<path class="st0" d="M251.8,106c-1.1,0.7-2.4,1.3-3.8,1.6c-1.4,0.4-2.8,0.6-4.2,0.6c-2.8,0-5.1-0.9-6.9-2.6
			c-1.8-1.7-2.7-4.1-2.7-7.3V83.5h-4.3v-6.3h4.3v-8.8h8.7v8.8h8.3v6.4h-8.3v13.2c0,2.5,0.9,3.7,2.8,3.7c1.3,0,2.7-0.4,4.3-1.2
			L251.8,106z"/>
	</g>
	<path class="st1" d="M40.3,59.6c0,0-25.1,8.7-16.9,37.3c0,0-0.3,1.7,9.2,10.6C32.7,107.5,13.1,76.1,40.3,59.6z"/>
	<path class="st1" d="M52.3,39.6c-0.2-0.7-3.5-5.9-11.3-6.5c-6.2-0.4-10.4,4.5-10.7,7.8c-0.3,2.6,1.6,6.8,1,9.7c0,0-0.1,0.4-0.3,0.9
		c0,0,0,0.1-0.1,0.1c0,0,0,0.1-0.1,0.1c0,0.1-0.1,0.1-0.1,0.2c-0.1,0.1-0.1,0.1-0.2,0.2l0,0c-0.7,0.8-1.9,1.7-4.4,1.7
		c0,0,2.4-0.4,3.5-1.9c-0.8-1-2.5-2.9-5.1-4h-0.1c-0.2-0.1-0.4-0.1-0.6-0.2c-0.1,0-0.3-0.1-0.5-0.1c-0.1,0-0.3-0.1-0.4-0.1
		s-0.3-0.1-0.4-0.1c-1.2-0.2-2.6-0.3-4-0.2l0,0c-1.7,0.3-3.6,1.1-5.3,3c0,0,1.1-2.7,4.7-3.5c-1.2-1.1-4.1-3.5-6.9-3.4
		c0,0,4.1-1.9,5.1-6.2c1.1-4.3,5.2-6.4,6.2-6.1c0.9,0.3,2.3,2.1,3.7,1.8c1.4-0.2,1.3-1.5,1.3-1.5s1.9-0.5,2.8-0.8
		c0.8-0.3,0.6-1.6-0.4-3.2c-1-1.5-1.7-3.5-3.1-2.9s-3.6,1.1-5.3,1.1s-2.6,0.6-4.3,1.9s-6.5,4.2-9.6,7.6s-4.9,5.5-6.5,6.5
		S0.6,43.3,1,44.7s-0.1,4.8,1.7,7.6c1.2,2.1,3,3.8,3.8,4.7c0-0.7,0.2-1,0.2-1c0,1.1,0.9,2.8,1.2,3.3c0.2,0.2,0.3,0.5,0.5,0.8
		c0.4-2.1,1.5-2.8,1.5-2.8c-0.7,1-0.9,2.4-0.8,3.8c0,0.5,0.2,1.7,0.6,3.2c0.2,0.6,0.3,1,0.4,1.3c0.2,0.5,0.4,0.9,0.6,1.4
		c1.2-2.2,2.9-2.7,2.9-2.7c-1.4,1-2.2,2.4-2.6,3.8c-0.1,0.6-0.3,1.8-0.2,3.3s0.4,2.9,0.6,3.3c0.4,1.1,0.9,2.3,1.7,3.5
		c3.1,4.1,7.5,15.2,8.1,16.7c-0.9-2.3-8.9-25.5,20.5-36.6c0,0,2.1,2.3,3.4,1c1.2-1,0.6-1.8,1.8-2.2c0.4-0.1,0.1-0.9,0.1-0.9
		s0.7,0,0.6-0.5c-0.1-0.3-0.1-1.6,0.5-1.6s1.3-0.1,1.4-0.5c0.1-0.4-0.5-2.9-0.8-4.1c-0.1-0.4,0-0.8,0.3-1.1l1.1-1.2
		c0.1-0.2,0.2-0.4,0.2-0.6l0.2-3.7C50.9,42.5,52.5,40.3,52.3,39.6z"/>
	
		<linearGradient id="SVGID_1_" gradientUnits="userSpaceOnUse" x1="20.6312" y1="91.4222" x2="20.8994" y2="95.7131" gradientTransform="matrix(1 0 0 -1 0 144)">
		<stop  offset="0" style="stop-color:#FFFFFF;stop-opacity:0"/>
		<stop  offset="0.8324" style="stop-color:#555555"/>
	</linearGradient>
	<path class="st2" d="M13.2,51.2c0,0,3.5-3.8,8.3-2.9c4.8,0.9,6.6,3.8,6.6,3.8S20.8,58.5,13.2,51.2z"/>
	
		<linearGradient id="SVGID_2_" gradientUnits="userSpaceOnUse" x1="10.8837" y1="96.674" x2="14.2295" y2="99.9955" gradientTransform="matrix(1 0 0 -1 0 144)">
		<stop  offset="0" style="stop-color:#FFFFFF;stop-opacity:0"/>
		<stop  offset="0.7081" style="stop-color:#555555"/>
	</linearGradient>
	<path class="st3" d="M12.7,49.6c0,0,0.8-2.7,3.8-3.3c0,0-3.1-2.8-6.7-2.5C9.8,43.9,5.7,46.4,12.7,49.6z"/>
	<linearGradient id="SVGID_3_" gradientUnits="userSpaceOnUse" x1="90.7389" y1="57.6046" x2="249.8389" y2="57.6046">
		<stop  offset="0" style="stop-color:#FFFFFF;stop-opacity:0"/>
		<stop  offset="1" style="stop-color:#555555"/>
	</linearGradient>
	<polygon class="st4" points="249.8,56.8 90.7,56.8 91.7,58.4 249.8,58.4 	"/>
	
		<linearGradient id="SVGID_4_" gradientUnits="userSpaceOnUse" x1="42.2446" y1="97.8032" x2="37.7077" y2="108.0707" gradientTransform="matrix(1 0 0 -1 0 144)">
		<stop  offset="0" style="stop-color:#FFFFFF;stop-opacity:0"/>
		<stop  offset="1" style="stop-color:#555555"/>
	</linearGradient>
	<path class="st5" d="M32.8,49.6c0,0-0.5-3.7-1-6.7c-0.6-3,2.1-7.3,7.1-8.3c5-1.1,10.6,2.4,11,4.4C50.3,41.1,37.3,56.7,32.8,49.6z"
		/>
	<g>
		<path class="st1" d="M101.9,48.2h1.6v3.3c-0.4,0.3-1,0.6-1.6,0.8s-1.2,0.3-1.7,0.3c-0.8,0-1.6-0.2-2.3-0.6
			c-0.7-0.4-1.2-0.9-1.6-1.5s-0.6-1.4-0.6-2.2s0.2-1.5,0.6-2.2c0.4-0.6,0.9-1.1,1.6-1.5s1.4-0.5,2.4-0.5c0.6,0,1.2,0.1,1.8,0.3
			c0.6,0.2,1.1,0.5,1.5,0.9l-1,1.3c-0.3-0.3-0.7-0.5-1-0.7s-0.8-0.2-1.2-0.2c-0.5,0-0.9,0.1-1.3,0.3s-0.7,0.5-0.9,0.9
			s-0.3,0.8-0.3,1.3s0.1,0.9,0.3,1.3c0.2,0.4,0.5,0.7,0.9,0.9s0.8,0.3,1.3,0.3c0.2,0,0.5,0,0.8-0.1s0.6-0.2,0.8-0.3V48h-0.1V48.2z"
			/>
		<path class="st1" d="M118.4,44.1l-3.1,5.6v2.7h-1.8v-2.7l-3.1-5.7h1.9l2.2,3.8l2.1-3.8h1.8V44.1z"/>
		<path class="st1" d="M125.4,44.1h2.1l2.6,5.1l2.6-5.1h2.1v8.4h-1.7v-5.6l-2.4,4.8h-1l-2.4-4.8v5.6h-1.7v-8.4H125.4z"/>
		<path class="st1" d="M165.8,46c-0.4-0.2-0.8-0.3-1.1-0.3c-0.5,0-0.9,0.1-1.3,0.3s-0.7,0.5-0.9,0.9s-0.3,0.8-0.3,1.3
			s0.1,0.9,0.3,1.3c0.2,0.4,0.5,0.7,0.9,0.9s0.8,0.3,1.3,0.3c0.4,0,0.7-0.1,1.1-0.3s0.7-0.4,1-0.7l1.1,1.2c-0.4,0.5-0.9,0.8-1.5,1.1
			s-1.2,0.4-1.8,0.4c-0.8,0-1.5-0.2-2.3-0.6c-0.7-0.4-1.2-0.9-1.5-1.5c-0.4-0.6-0.6-1.4-0.6-2.3c0-0.8,0.2-1.5,0.6-2.2
			c0.4-0.6,0.9-1.1,1.6-1.5c0.7-0.4,1.4-0.5,2.3-0.5c0.6,0,1.2,0.1,1.7,0.4c0.6,0.2,1.1,0.6,1.5,1l-1.1,1.3
			C166.5,46.4,166.1,46.2,165.8,46z"/>
		<path class="st1" d="M175.1,44.1h6.4v1.5H177v1.8h4v1.5h-4v1.8h4.6v1.5h-6.5V44.1z"/>
		<path class="st1" d="M195,44.1h1.7v8.4h-1.6l-4-5.3v5.3h-1.8v-8.4h1.7l4.1,5.4L195,44.1C195.1,44.1,195,44.1,195,44.1z"/>
		<path class="st1" d="M204.1,44.1h7v1.6h-2.6v6.8h-1.8v-6.8h-2.6L204.1,44.1L204.1,44.1z"/>
		<path class="st1" d="M218.2,44.1h6.4v1.5h-4.5v1.8h4v1.5h-4v1.8h4.6v1.5h-6.5V44.1z"/>
		<path class="st1" d="M237.5,52.4l-1.3-2.4H236h-1.7v2.4h-1.8V44h3.6c1.1,0,1.9,0.2,2.6,0.7c0.6,0.5,0.9,1.2,0.9,2.2
			c0,0.6-0.1,1.2-0.4,1.6s-0.6,0.8-1.1,1l1.7,2.8h-2.3V52.4z M234.2,48.5h1.7c0.5,0,0.9-0.1,1.2-0.4c0.3-0.2,0.4-0.6,0.4-1
			c0-0.5-0.1-0.8-0.4-1c-0.3-0.2-0.7-0.3-1.2-0.3h-1.7V48.5z"/>
	</g>
</g>
</svg>
